<?xml version="1.0" encoding="UTF-8" standalone="no"?><!DOCTYPE svg PUBLIC "-//W3C//DTD SVG 1.1//EN" "http://www.w3.org/Graphics/SVG/1.1/DTD/svg11.dtd"><svg width="100%" height="100%" viewBox="0 0 453 122" version="1.1" xmlns="http://www.w3.org/2000/svg" xmlns:xlink="http://www.w3.org/1999/xlink" xml:space="preserve" xmlns:serif="http://www.serif.com/" style="fill-rule:evenodd;clip-rule:evenodd;stroke-linejoin:round;stroke-miterlimit:1.41421;"><rect id="Plan-de-travail1" serif:id="Plan de travail1" x="0" y="0" width="452.328" height="121.096" style="fill:none;"/><path d="M95.7,96.776c-7.931,-2.812 -15.161,-7.112 -21.354,-12.562c-6.802,6.246 -15.87,10.061 -25.823,10.061c-21.083,0 -38.199,-17.117 -38.199,-38.199c0,-21.083 17.116,-38.199 38.199,-38.199c1.951,0 3.868,0.147 5.74,0.429c0.602,-2.276 1.323,-4.503 2.157,-6.675l122.282,0c1.033,2.69 1.893,5.467 2.564,8.314l-70.244,22.394l65.622,20.921c-7.439,15.545 -20.834,27.704 -37.222,33.516l58.695,0c0,9.477 -37.725,17.16 -84.262,17.16c-46.536,0 -84.262,-7.683 -84.262,-17.16l66.107,0Zm-43.443,-66.324c-1.22,-0.177 -2.466,-0.268 -3.734,-0.268c-14.29,0 -25.892,11.602 -25.892,25.892c0,14.29 11.602,25.892 25.892,25.892c6.688,0 12.787,-2.541 17.383,-6.71c-8.652,-11.098 -13.809,-25.052 -13.809,-40.201c0,-1.548 0.054,-3.084 0.16,-4.605Z" style="fill:url(#_Linear1);"/><path d="M129.664,22.162c0.084,0.416 0.125,0.836 0.125,1.265c0,3.617 -2.937,6.554 -6.554,6.554c-3.617,0 -6.553,-2.937 -6.553,-6.554c0,-3.617 2.936,-6.553 6.553,-6.553c2.142,0 4.044,1.029 5.234,2.622l-2.1,2.513l3.295,0.153Z"/><text x="235.804px" y="60.087px" style="font-family:'Ubuntu-Bold', 'Ubuntu', sans-serif;font-weight:700;font-size:37.887px;fill:url(#_Linear2);">PIXPRESSO</text><text x="294.303px" y="93.774px" style="font-family:'Ubuntu-Bold', 'Ubuntu', sans-serif;font-weight:700;font-size:28.415px;fill:url(#_Linear3);">C<tspan x="313.512px " y="93.774px ">A</tspan>FE</text><rect x="251.6" y="65.098" width="167.537" height="1.78" style="fill:url(#_Linear4);"/><circle cx="174.549" cy="40.351" r="6.047" style="fill:url(#_Linear5);"/><circle cx="198.117" cy="40.351" r="6.047" style="fill:url(#_Linear6);"/><defs><linearGradient id="_Linear1" x1="0" y1="0" x2="1" y2="0" gradientUnits="userSpaceOnUse" gradientTransform="matrix(6.26439e-15,102.305,-102.305,6.26439e-15,104.221,11.6306)"><stop offset="0" style="stop-color:#ebffff;stop-opacity:1"/><stop offset="0.65" style="stop-color:#bed1ee;stop-opacity:1"/><stop offset="0.82" style="stop-color:#8390a4;stop-opacity:1"/><stop offset="0.83" style="stop-color:#8d9bb0;stop-opacity:1"/><stop offset="0.83" style="stop-color:#a9bad3;stop-opacity:1"/><stop offset="0.83" style="stop-color:#cce1ff;stop-opacity:1"/><stop offset="0.92" style="stop-color:#bbcde9;stop-opacity:1"/><stop offset="1" style="stop-color:#7e8799;stop-opacity:1"/></linearGradient><linearGradient id="_Linear2" x1="0" y1="0" x2="1" y2="0" gradientUnits="userSpaceOnUse" gradientTransform="matrix(3.63224,131.074,-131.074,3.63224,331.736,29.3062)"><stop offset="0" style="stop-color:#ebffff;stop-opacity:1"/><stop offset="1" style="stop-color:#a5b6cf;stop-opacity:1"/></linearGradient><linearGradient id="_Linear3" x1="0" y1="0" x2="1" y2="0" gradientUnits="userSpaceOnUse" gradientTransform="matrix(3.63224,131.074,-131.074,3.63224,331.736,29.3062)"><stop offset="0" style="stop-color:#ebffff;stop-opacity:1"/><stop offset="1" style="stop-color:#a5b6cf;stop-opacity:1"/></linearGradient><linearGradient id="_Linear4" x1="0" y1="0" x2="1" y2="0" gradientUnits="userSpaceOnUse" gradientTransform="matrix(3.63224,131.074,-131.074,3.63224,331.736,29.3062)"><stop offset="0" style="stop-color:#ebffff;stop-opacity:1"/><stop offset="1" style="stop-color:#a5b6cf;stop-opacity:1"/></linearGradient><linearGradient id="_Linear5" x1="0" y1="0" x2="1" y2="0" gradientUnits="userSpaceOnUse" gradientTransform="matrix(4.03459e-16,12.0948,-6.58898,7.40595e-16,174.549,34.3033)"><stop offset="0" style="stop-color:#ebffff;stop-opacity:1"/><stop offset="1" style="stop-color:#bed1ee;stop-opacity:1"/><stop offset="1" style="stop-color:#dbf0ff;stop-opacity:1"/></linearGradient><linearGradient id="_Linear6" x1="0" y1="0" x2="1" y2="0" gradientUnits="userSpaceOnUse" gradientTransform="matrix(4.03459e-16,12.0948,-6.58898,7.40595e-16,198.117,34.3033)"><stop offset="0" style="stop-color:#ebffff;stop-opacity:1"/><stop offset="1" style="stop-color:#bed1ee;stop-opacity:1"/><stop offset="1" style="stop-color:#dbf0ff;stop-opacity:1"/></linearGradient></defs></svg>